# xmcd
#
# Track frame offsets:
#	150
#	12347
#	18998
#	31430
#	44301
#	55533
#	70638
#	85416
#	98981
#	125179
#	137292
#	154189
#	169057
#	189757
#	207211
#	219996
#	236394
#	245045
#	260305
#	276242
#	285704
#	295785
#	309546
#
# Disc length: 4298 seconds
#
# Revision: 1
# Processed by: cddbd v1.5.2PL0 Copyright (c) Steve Scherf et al.
# Submitted via: EasyCDDAExtractor 12.0.1.1
#
DISCID=4210c817
DTITLE=Johnny Cash - Johnny Cash Disc 2
DYEAR=2000
DGENRE=Country
TTITLE0=Sixteen Tons
TTITLE1=Busted [Live]
TTITLE2=Vietnam
TTITLE3=The General Lee
TTITLE4=Thirteen
TTITLE5=Casey's Last Ride
TTITLE6=Chattanooga Sugar Babe
TTITLE7=Dark as a Dungeon
TTITLE8=Down There by the Train
TTITLE9=I Shall Not Be Moved
TTITLE10=I'm a Drifter (version 2)
TTITLE11=In The Garden
TTITLE12=Mercy Seat
TTITLE13=One
TTITLE14=Rusty Cage
TTITLE15='T' For Texas
TTITLE16=The Caretaker
TTITLE17=Thirteen
TTITLE18=Trouble In Mind
TTITLE19=Understand Your Man
TTITLE20=When He Reached Down
TTITLE21=Wichita Lineman
TTITLE22=Wanted Man
EXTD=
EXTT0=
EXTT1=
EXTT2=
EXTT3=
EXTT4=
EXTT5=
EXTT6=
EXTT7=
EXTT8=
EXTT9=
EXTT10=
EXTT11=
EXTT12=
EXTT13=
EXTT14=
EXTT15=
EXTT16=
EXTT17=
EXTT18=
EXTT19=
EXTT20=
EXTT21=
EXTT22=
PLAYORDER=
